<?xml version="1.0" encoding="UTF-8"?>
<!DOCTYPE svg PUBLIC "-//W3C//DTD SVG 1.1//EN" "http://www.w3.org/Graphics/SVG/1.1/DTD/svg11.dtd">
<svg xmlns="http://www.w3.org/2000/svg" version="1.1" width="300px" height="294px" style="shape-rendering:geometricPrecision; text-rendering:geometricPrecision; image-rendering:optimizeQuality; fill-rule:evenodd; clip-rule:evenodd" xmlns:xlink="http://www.w3.org/1999/xlink">
<g><path style="opacity:1" fill="#f9f9f9" d="M -0.5,-0.5 C 99.5,-0.5 199.5,-0.5 299.5,-0.5C 299.5,97.5 299.5,195.5 299.5,293.5C 199.5,293.5 99.5,293.5 -0.5,293.5C -0.5,195.5 -0.5,97.5 -0.5,-0.5 Z"/></g>
<g><path style="opacity:1" fill="#35a9bf" d="M 152.5,15.5 C 167.488,12.6189 181.821,14.7855 195.5,22C 198.523,24.1775 200.523,27.0108 201.5,30.5C 193.65,28.5632 186.317,29.5632 179.5,33.5C 172.728,36.0523 166.394,39.3856 160.5,43.5C 156.946,44.7693 153.946,46.7693 151.5,49.5C 141.492,55.1755 132.158,61.8422 123.5,69.5C 121.086,68.8411 119.086,68.1744 117.5,67.5C 125.212,61.1223 133.212,55.1223 141.5,49.5C 146.471,46.0097 151.471,42.5097 156.5,39C 156.725,31.9438 156.725,25.1105 156.5,18.5C 158.225,19.0149 159.892,19.6816 161.5,20.5C 163.05,23.3724 164.383,25.8724 165.5,28C 167.473,28.4955 169.473,28.6621 171.5,28.5C 172.144,23.6149 170.144,20.4482 165.5,19C 166.5,18 167.5,17 168.5,16C 163.177,15.5006 157.844,15.334 152.5,15.5 Z"/></g>
<g><path style="opacity:1" fill="#2498b8" d="M 142.5,16.5 C 145.625,15.5206 148.958,15.1872 152.5,15.5C 157.844,15.334 163.177,15.5006 168.5,16C 167.5,17 166.5,18 165.5,19C 170.144,20.4482 172.144,23.6149 171.5,28.5C 169.473,28.6621 167.473,28.4955 165.5,28C 164.383,25.8724 163.05,23.3724 161.5,20.5C 159.892,19.6816 158.225,19.0149 156.5,18.5C 156.725,25.1105 156.725,31.9438 156.5,39C 151.471,42.5097 146.471,46.0097 141.5,49.5C 142.677,47.8974 142.511,46.564 141,45.5C 140.667,45.8333 140.333,46.1667 140,46.5C 139.149,42.9583 139.649,39.6249 141.5,36.5C 140.617,35.452 139.95,34.2853 139.5,33C 141.286,27.9143 142.953,22.7476 144.5,17.5C 144.043,16.7025 143.376,16.3691 142.5,16.5 Z"/></g>
<g><path style="opacity:1" fill="#208bb2" d="M 142.5,16.5 C 143.376,16.3691 144.043,16.7025 144.5,17.5C 142.953,22.7476 141.286,27.9143 139.5,33C 139.95,34.2853 140.617,35.452 141.5,36.5C 139.649,39.6249 139.149,42.9583 140,46.5C 140.333,46.1667 140.667,45.8333 141,45.5C 142.511,46.564 142.677,47.8974 141.5,49.5C 133.212,55.1223 125.212,61.1223 117.5,67.5C 117.167,67.5 116.833,67.5 116.5,67.5C 115.081,66.5489 113.415,66.2155 111.5,66.5C 111.649,65.448 111.483,64.448 111,63.5C 110.111,64.8882 109.611,64.7215 109.5,63C 110.116,60.3836 111.116,57.7169 112.5,55C 112.167,53.3333 111.833,51.6667 111.5,50C 113.125,49.1475 113.458,48.1475 112.5,47C 115.327,40.1737 119.661,34.507 125.5,30C 125.167,29.6667 124.833,29.3333 124.5,29C 127.255,26.3304 128.589,23.3304 128.5,20C 127.552,19.5172 126.552,19.3505 125.5,19.5C 130.844,17.3671 136.511,16.3671 142.5,16.5 Z"/></g>
<g><path style="opacity:1" fill="#1a7faa" d="M 125.5,19.5 C 126.552,19.3505 127.552,19.5172 128.5,20C 128.589,23.3304 127.255,26.3304 124.5,29C 124.833,29.3333 125.167,29.6667 125.5,30C 119.661,34.507 115.327,40.1737 112.5,47C 113.458,48.1475 113.125,49.1475 111.5,50C 111.833,51.6667 112.167,53.3333 112.5,55C 111.116,57.7169 110.116,60.3836 109.5,63C 109.611,64.7215 110.111,64.8882 111,63.5C 111.483,64.448 111.649,65.448 111.5,66.5C 113.415,66.2155 115.081,66.5489 116.5,67.5C 110.177,72.4908 104.177,77.8241 98.5,83.5C 96.9153,83.0146 95.4153,83.6812 94,85.5C 91.8764,81.2266 90.3764,76.7266 89.5,72C 90.8291,65.4944 90.1624,59.4944 87.5,54C 89.4258,51.2324 91.0924,48.5657 92.5,46C 91.2575,43.386 91.5908,40.886 93.5,38.5C 93.4712,36.9707 92.8045,35.804 91.5,35C 92.7155,32.9045 93.5488,33.0712 94,35.5C 94.6667,34.1667 95.3333,34.1667 96,35.5C 98.3738,32.7124 99.7071,33.0458 100,36.5C 100.654,35.3044 101.154,35.3044 101.5,36.5C 100.516,38.5979 100.849,40.5979 102.5,42.5C 102.02,44.9486 101.02,47.1153 99.5,49C 99.8333,49.3333 100.167,49.6667 100.5,50C 97.4557,50.3589 97.1224,51.0255 99.5,52C 97.1693,53.7998 97.1693,55.7998 99.5,58C 96.9201,60.2376 97.0868,62.4043 100,64.5C 101.776,61.4444 101.943,58.2778 100.5,55C 102.836,50.2973 105.169,45.1306 107.5,39.5C 110.411,36.6473 113.078,33.6473 115.5,30.5C 113.73,29.1804 113.397,27.6804 114.5,26C 111.998,24.5855 109.332,24.4188 106.5,25.5C 112.497,22.7246 118.831,20.7246 125.5,19.5 Z"/></g>
<g><path style="opacity:1" fill="#065885" d="M 201.5,30.5 C 202.299,33.4299 202.632,36.4299 202.5,39.5C 199.697,46.307 195.364,51.9736 189.5,56.5C 186.622,54.6906 185.622,52.1906 186.5,49C 183.692,44.4877 182.692,39.6544 183.5,34.5C 182.311,33.5713 180.978,33.238 179.5,33.5C 186.317,29.5632 193.65,28.5632 201.5,30.5 Z"/></g>
<g><path style="opacity:1" fill="#1776a7" d="M 98.5,83.5 C 92.929,89.648 87.5956,95.9814 82.5,102.5C 80.8606,104.806 78.8606,106.806 76.5,108.5C 76.5106,106.983 77.1772,105.816 78.5,105C 78,104.5 77.5,104 77,103.5C 73.3335,104.989 71.3335,103.655 71,99.5C 70.6667,99.8333 70.3333,100.167 70,100.5C 69.6667,97.8333 69.3333,95.1667 69,92.5C 67.4445,90.5566 66.2779,88.3899 65.5,86C 66.0345,84.4626 66.3678,82.9626 66.5,81.5C 64.6407,78.4315 64.6407,75.5982 66.5,73C 65.7539,70.9068 65.4205,68.9068 65.5,67C 67.0215,63.3558 67.8548,59.5225 68,55.5C 68.4523,58.1494 69.2857,60.6494 70.5,63C 69.5189,68.8718 69.3522,75.0384 70,81.5C 71.3848,80.4495 72.3848,79.1161 73,77.5C 73.1388,80.8245 74.1388,83.8245 76,86.5C 76.8271,85.3379 77.6604,84.1712 78.5,83C 77.7273,76.8706 77.2273,70.7039 77,64.5C 76.5,64 76,63.5 75.5,63C 75.2505,61.4288 75.9171,59.9288 77.5,58.5C 77.1822,57.3527 76.5156,56.5194 75.5,56C 75.9574,55.586 76.2907,55.086 76.5,54.5C 74.2836,50.694 74.6169,47.5273 77.5,45C 76.6266,43.955 75.6266,43.1217 74.5,42.5C 84.2389,35.2945 94.9056,29.6278 106.5,25.5C 109.332,24.4188 111.998,24.5855 114.5,26C 113.397,27.6804 113.73,29.1804 115.5,30.5C 113.078,33.6473 110.411,36.6473 107.5,39.5C 105.169,45.1306 102.836,50.2973 100.5,55C 101.943,58.2778 101.776,61.4444 100,64.5C 97.0868,62.4043 96.9201,60.2376 99.5,58C 97.1693,55.7998 97.1693,53.7998 99.5,52C 97.1224,51.0255 97.4557,50.3589 100.5,50C 100.167,49.6667 99.8333,49.3333 99.5,49C 101.02,47.1153 102.02,44.9486 102.5,42.5C 100.849,40.5979 100.516,38.5979 101.5,36.5C 101.154,35.3044 100.654,35.3044 100,36.5C 99.7071,33.0458 98.3738,32.7124 96,35.5C 95.3333,34.1667 94.6667,34.1667 94,35.5C 93.5488,33.0712 92.7155,32.9045 91.5,35C 92.8045,35.804 93.4712,36.9707 93.5,38.5C 91.5908,40.886 91.2575,43.386 92.5,46C 91.0924,48.5657 89.4258,51.2324 87.5,54C 90.1624,59.4944 90.8291,65.4944 89.5,72C 90.3764,76.7266 91.8764,81.2266 94,85.5C 95.4153,83.6812 96.9153,83.0146 98.5,83.5 Z"/></g>
<g><path style="opacity:1" fill="#024d7d" d="M 179.5,33.5 C 180.978,33.238 182.311,33.5713 183.5,34.5C 182.692,39.6544 183.692,44.4877 186.5,49C 185.622,52.1906 186.622,54.6906 189.5,56.5C 186.29,60.9206 182.623,64.9206 178.5,68.5C 178.265,67.9033 177.765,67.5699 177,67.5C 175.326,68.8354 173.659,70.1688 172,71.5C 165.501,63.2716 162.335,54.1049 162.5,44C 161.906,43.5357 161.239,43.369 160.5,43.5C 166.394,39.3856 172.728,36.0523 179.5,33.5 Z"/></g>
<g><path style="opacity:1" fill="#1069a1" d="M 74.5,42.5 C 75.6266,43.1217 76.6266,43.955 77.5,45C 74.6169,47.5273 74.2836,50.694 76.5,54.5C 76.2907,55.086 75.9574,55.586 75.5,56C 76.5156,56.5194 77.1822,57.3527 77.5,58.5C 75.9171,59.9288 75.2505,61.4288 75.5,63C 76,63.5 76.5,64 77,64.5C 77.2273,70.7039 77.7273,76.8706 78.5,83C 77.6604,84.1712 76.8271,85.3379 76,86.5C 74.1388,83.8245 73.1388,80.8245 73,77.5C 72.3848,79.1161 71.3848,80.4495 70,81.5C 69.3522,75.0384 69.5189,68.8718 70.5,63C 69.2857,60.6494 68.4523,58.1494 68,55.5C 67.8548,59.5225 67.0215,63.3558 65.5,67C 65.4205,68.9068 65.7539,70.9068 66.5,73C 64.6407,75.5982 64.6407,78.4315 66.5,81.5C 66.3678,82.9626 66.0345,84.4626 65.5,86C 66.2779,88.3899 67.4445,90.5566 69,92.5C 69.3333,95.1667 69.6667,97.8333 70,100.5C 70.3333,100.167 70.6667,99.8333 71,99.5C 71.3335,103.655 73.3335,104.989 77,103.5C 77.5,104 78,104.5 78.5,105C 77.1772,105.816 76.5106,106.983 76.5,108.5C 74.1295,111.554 72.1295,114.887 70.5,118.5C 72.3163,120.029 72.983,121.696 72.5,123.5C 64.4079,135.346 57.0746,147.679 50.5,160.5C 49.0416,160.421 47.7083,159.921 46.5,159C 50.772,151.292 54.4387,144.292 57.5,138C 55.5525,138.735 53.7192,139.235 52,139.5C 51.1635,137.179 50.8301,134.845 51,132.5C 51.3333,133.167 51.6667,133.833 52,134.5C 52.6667,133.167 53.3333,133.167 54,134.5C 54.5946,133.101 54.4279,131.768 53.5,130.5C 56.0865,129.52 58.7531,129.187 61.5,129.5C 62.5576,126.666 63.7242,123.999 65,121.5C 63.1217,123.698 60.9551,123.864 58.5,122C 57.3333,120.5 56.1667,119 55,117.5C 54.6667,117.833 54.3333,118.167 54,118.5C 53.7104,116.956 53.0437,115.623 52,114.5C 51.6667,114.833 51.3333,115.167 51,115.5C 48.3228,112.789 46.1561,109.789 44.5,106.5C 44.178,104.278 44.8446,102.444 46.5,101C 44.7774,100.477 43.444,99.4768 42.5,98C 44.7047,95.9618 46.2047,93.4618 47,90.5C 47.5611,92.7254 48.5611,94.7254 50,96.5C 50.3333,96.1667 50.6667,95.8333 51,95.5C 51.036,100.512 52.2026,105.179 54.5,109.5C 54.6752,107.627 55.5086,105.627 57,103.5C 57.4186,104.672 58.0853,105.672 59,106.5C 59.1667,106 59.3333,105.5 59.5,105C 56.7536,97.4512 53.9202,89.6179 51,81.5C 50.6667,82.1667 50.3333,82.8333 50,83.5C 49.6824,81.9391 48.8491,80.7724 47.5,80C 47.964,77.595 48.1307,75.095 48,72.5C 50.277,72.0795 52.777,71.4129 55.5,70.5C 55.4615,67.1927 56.1282,64.0261 57.5,61C 57.3613,59.699 56.6946,58.8656 55.5,58.5C 61.2224,52.4445 67.5557,47.1112 74.5,42.5 Z"/></g>
<g><path style="opacity:1" fill="#0e64a2" d="M 55.5,58.5 C 56.6946,58.8656 57.3613,59.699 57.5,61C 56.1282,64.0261 55.4615,67.1927 55.5,70.5C 52.777,71.4129 50.277,72.0795 48,72.5C 48.1307,75.095 47.964,77.595 47.5,80C 48.8491,80.7724 49.6824,81.9391 50,83.5C 50.3333,82.8333 50.6667,82.1667 51,81.5C 53.9202,89.6179 56.7536,97.4512 59.5,105C 59.3333,105.5 59.1667,106 59,106.5C 58.0853,105.672 57.4186,104.672 57,103.5C 55.5086,105.627 54.6752,107.627 54.5,109.5C 52.2026,105.179 51.036,100.512 51,95.5C 50.6667,95.8333 50.3333,96.1667 50,96.5C 48.5611,94.7254 47.5611,92.7254 47,90.5C 46.2047,93.4618 44.7047,95.9618 42.5,98C 43.444,99.4768 44.7774,100.477 46.5,101C 44.8446,102.444 44.178,104.278 44.5,106.5C 44.5654,106.938 44.3988,107.272 44,107.5C 42.3107,105.24 41.144,102.74 40.5,100C 40.8333,99.6667 41.1667,99.3333 41.5,99C 40.1068,97.8289 39.2735,96.3289 39,94.5C 37.984,95.6341 37.3173,95.3008 37,93.5C 36.1932,97.449 35.6932,97.449 35.5,93.5C 34.5,93.5 33.5,93.5 32.5,93.5C 32.7373,92.209 32.404,91.209 31.5,90.5C 37.5834,78.4138 45.5834,67.7471 55.5,58.5 Z"/></g>
<g><path style="opacity:1" fill="#00406d" d="M 160.5,43.5 C 161.239,43.369 161.906,43.5357 162.5,44C 162.335,54.1049 165.501,63.2716 172,71.5C 173.659,70.1688 175.326,68.8354 177,67.5C 177.765,67.5699 178.265,67.9033 178.5,68.5C 177.833,69.5 177.167,70.5 176.5,71.5C 173.167,74.1667 170.167,77.1667 167.5,80.5C 162.167,85.5 156.833,90.5 151.5,95.5C 151.167,94.8333 150.833,94.1667 150.5,93.5C 150.918,92.7784 151.584,92.2784 152.5,92C 150.714,91.8038 149.381,90.9705 148.5,89.5C 149.373,87.5866 150.373,85.7533 151.5,84C 149.895,81.2673 148.895,78.2673 148.5,75C 148.833,74.6667 149.167,74.3333 149.5,74C 148.54,72.5806 147.707,71.0806 147,69.5C 146.667,70.1667 146.333,70.8333 146,71.5C 144.743,69.3211 143.243,67.3211 141.5,65.5C 143.483,63.0163 145.65,60.6829 148,58.5C 149.247,55.6714 150.747,53.0048 152.5,50.5C 152.376,49.8933 152.043,49.56 151.5,49.5C 153.946,46.7693 156.946,44.7693 160.5,43.5 Z"/></g>
<g><path style="opacity:1" fill="#278fb0" d="M 202.5,39.5 C 200.765,47.9853 197.598,55.9853 193,63.5C 185.401,75.2567 176.901,86.2567 167.5,96.5C 166.992,94.7673 166.159,94.434 165,95.5C 164.219,94.0563 164.386,92.723 165.5,91.5C 168.243,91.072 170.576,89.9053 172.5,88C 171.551,87.3828 170.718,87.5494 170,88.5C 169.13,87.8921 168.63,87.0588 168.5,86C 171.604,81.2249 175.104,76.7249 179,72.5C 179.667,71.8333 179.667,71.1667 179,70.5C 178.329,71.2524 177.496,71.5858 176.5,71.5C 177.167,70.5 177.833,69.5 178.5,68.5C 182.623,64.9206 186.29,60.9206 189.5,56.5C 195.364,51.9736 199.697,46.307 202.5,39.5 Z"/></g>
<g><path style="opacity:1" fill="#003864" d="M 150.5,93.5 C 150.833,94.1667 151.167,94.8333 151.5,95.5C 147.5,100.167 143.167,104.5 138.5,108.5C 137.188,106.521 135.521,104.855 133.5,103.5C 134.025,102.808 134.692,102.308 135.5,102C 135.018,100.992 134.852,99.825 135,98.5C 133.247,99.627 131.413,100.627 129.5,101.5C 128.669,99.5269 128.502,97.5269 129,95.5C 128,95.5 127,95.5 126,95.5C 124.831,92.3432 124.831,89.0099 126,85.5C 128.768,84.7924 129.601,83.2924 128.5,81C 129.257,79.4878 130.257,78.1545 131.5,77C 130.833,76.6667 130.167,76.3333 129.5,76C 130.977,73.5551 132.81,71.3884 135,69.5C 137.048,72.8127 138.048,76.4794 138,80.5C 138.923,79.2412 139.757,77.9079 140.5,76.5C 141.08,78.6367 142.08,80.47 143.5,82C 143.5,83.3333 143.5,84.6667 143.5,86C 141.285,86.3876 139.952,87.3876 139.5,89C 141.194,90.3873 142.86,90.054 144.5,88C 147.547,87.4202 147.881,87.7535 145.5,89C 147.301,89.3173 147.634,89.984 146.5,91C 147.471,92.4813 148.804,93.3146 150.5,93.5 Z"/></g>
<g><path style="opacity:1" fill="#003262" d="M 151.5,49.5 C 152.043,49.56 152.376,49.8933 152.5,50.5C 150.747,53.0048 149.247,55.6714 148,58.5C 145.65,60.6829 143.483,63.0163 141.5,65.5C 143.243,67.3211 144.743,69.3211 146,71.5C 146.333,70.8333 146.667,70.1667 147,69.5C 147.707,71.0806 148.54,72.5806 149.5,74C 149.167,74.3333 148.833,74.6667 148.5,75C 148.895,78.2673 149.895,81.2673 151.5,84C 150.373,85.7533 149.373,87.5866 148.5,89.5C 149.381,90.9705 150.714,91.8038 152.5,92C 151.584,92.2784 150.918,92.7784 150.5,93.5C 148.804,93.3146 147.471,92.4813 146.5,91C 147.634,89.984 147.301,89.3173 145.5,89C 147.881,87.7535 147.547,87.4202 144.5,88C 142.86,90.054 141.194,90.3873 139.5,89C 139.952,87.3876 141.285,86.3876 143.5,86C 143.5,84.6667 143.5,83.3333 143.5,82C 142.08,80.47 141.08,78.6367 140.5,76.5C 139.757,77.9079 138.923,79.2412 138,80.5C 138.048,76.4794 137.048,72.8127 135,69.5C 132.81,71.3884 130.977,73.5551 129.5,76C 130.167,76.3333 130.833,76.6667 131.5,77C 130.257,78.1545 129.257,79.4878 128.5,81C 129.601,83.2924 128.768,84.7924 126,85.5C 124.831,89.0099 124.831,92.3432 126,95.5C 127,95.5 128,95.5 129,95.5C 128.502,97.5269 128.669,99.5269 129.5,101.5C 131.413,100.627 133.247,99.627 135,98.5C 134.852,99.825 135.018,100.992 135.5,102C 134.692,102.308 134.025,102.808 133.5,103.5C 135.521,104.855 137.188,106.521 138.5,108.5C 135.4,112.356 132.067,116.023 128.5,119.5C 127.687,118.347 126.687,118.347 125.5,119.5C 125.002,118.397 124.669,117.397 124.5,116.5C 123.534,118.396 123.201,120.396 123.5,122.5C 121.305,123.608 119.305,123.441 117.5,122C 118.641,121.259 118.641,120.425 117.5,119.5C 118.685,118.147 120.019,116.98 121.5,116C 121,115.5 120.5,115 120,114.5C 116.08,116.457 112.746,119.123 110,122.5C 109.075,121.953 108.242,121.287 107.5,120.5C 108.611,119.389 109.278,118.055 109.5,116.5C 107.895,111.654 107.062,106.654 107,101.5C 106.667,101.833 106.333,102.167 106,102.5C 105.626,101.584 105.126,100.75 104.5,100C 106.5,97.3333 108.5,94.6667 110.5,92C 109.119,89.014 108.452,86.1806 108.5,83.5C 113.5,78.8333 118.5,74.1667 123.5,69.5C 132.158,61.8422 141.492,55.1755 151.5,49.5 Z"/></g>
<g><path style="opacity:1" fill="#3b99b5" d="M 116.5,67.5 C 116.833,67.5 117.167,67.5 117.5,67.5C 119.086,68.1744 121.086,68.8411 123.5,69.5C 118.5,74.1667 113.5,78.8333 108.5,83.5C 103.833,87.5 99.5,91.8333 95.5,96.5C 92.1667,100.5 88.5,104.167 84.5,107.5C 84.6085,105.486 83.9418,103.82 82.5,102.5C 87.5956,95.9814 92.929,89.648 98.5,83.5C 104.177,77.8241 110.177,72.4908 116.5,67.5 Z"/></g>
<g><path style="opacity:1" fill="#085b9a" d="M 31.5,90.5 C 32.404,91.209 32.7373,92.209 32.5,93.5C 33.5,93.5 34.5,93.5 35.5,93.5C 35.6932,97.449 36.1932,97.449 37,93.5C 37.3173,95.3008 37.984,95.6341 39,94.5C 39.2735,96.3289 40.1068,97.8289 41.5,99C 41.1667,99.3333 40.8333,99.6667 40.5,100C 41.144,102.74 42.3107,105.24 44,107.5C 44.3988,107.272 44.5654,106.938 44.5,106.5C 46.1561,109.789 48.3228,112.789 51,115.5C 51.3333,115.167 51.6667,114.833 52,114.5C 53.0437,115.623 53.7104,116.956 54,118.5C 54.3333,118.167 54.6667,117.833 55,117.5C 56.1667,119 57.3333,120.5 58.5,122C 60.9551,123.864 63.1217,123.698 65,121.5C 63.7242,123.999 62.5576,126.666 61.5,129.5C 58.7531,129.187 56.0865,129.52 53.5,130.5C 54.4279,131.768 54.5946,133.101 54,134.5C 53.3333,133.167 52.6667,133.167 52,134.5C 51.6667,133.833 51.3333,133.167 51,132.5C 50.8301,134.845 51.1635,137.179 52,139.5C 53.7192,139.235 55.5525,138.735 57.5,138C 54.4387,144.292 50.772,151.292 46.5,159C 47.7083,159.921 49.0416,160.421 50.5,160.5C 48.4974,165.171 46.4974,169.838 44.5,174.5C 42.9642,172.975 41.9642,170.975 41.5,168.5C 40.6852,170.276 39.5185,170.943 38,170.5C 37.4389,168.275 36.4389,166.275 35,164.5C 34.6667,164.833 34.3333,165.167 34,165.5C 32.4039,163.315 32.2373,160.981 33.5,158.5C 31.972,156.129 30.6387,153.629 29.5,151C 29.8443,149.635 30.5109,148.468 31.5,147.5C 31.1543,146.304 30.6543,146.304 30,147.5C 29.237,144.807 27.737,142.807 25.5,141.5C 26.1306,137.196 26.6306,132.863 27,128.5C 28.6741,131.007 29.5075,133.507 29.5,136C 29.9739,137.608 30.6406,137.774 31.5,136.5C 31.1667,133.833 30.8333,131.167 30.5,128.5C 31.5,124.5 32.5,124.5 33.5,128.5C 33.2907,129.086 32.9574,129.586 32.5,130C 33.2822,132.74 33.7822,135.574 34,138.5C 34.5613,137.978 35.228,137.645 36,137.5C 38.6956,139.086 41.3622,139.753 44,139.5C 44.6172,138.551 44.4506,137.718 43.5,137C 45.127,137.43 46.627,137.596 48,137.5C 48.1667,136.833 48.3333,136.167 48.5,135.5C 47.3008,134.425 46.1341,133.425 45,132.5C 44.6667,133.167 44.3333,133.833 44,134.5C 43.6667,133.167 43.3333,131.833 43,130.5C 42.586,130.957 42.086,131.291 41.5,131.5C 40.8659,129.433 39.8659,127.6 38.5,126C 35.573,125.905 33.073,124.405 31,121.5C 30.0255,123.878 29.3589,123.544 29,120.5C 28.6667,120.833 28.3333,121.167 28,121.5C 27.276,119.041 25.9427,118.041 24,118.5C 23.8171,115.635 23.3171,112.969 22.5,110.5C 24.4348,103.301 27.4348,96.6346 31.5,90.5 Z"/></g>
<g><path style="opacity:1" fill="#002a5b" d="M 108.5,83.5 C 108.452,86.1806 109.119,89.014 110.5,92C 108.5,94.6667 106.5,97.3333 104.5,100C 105.126,100.75 105.626,101.584 106,102.5C 106.333,102.167 106.667,101.833 107,101.5C 107.062,106.654 107.895,111.654 109.5,116.5C 109.278,118.055 108.611,119.389 107.5,120.5C 108.242,121.287 109.075,121.953 110,122.5C 112.746,119.123 116.08,116.457 120,114.5C 120.5,115 121,115.5 121.5,116C 120.019,116.98 118.685,118.147 117.5,119.5C 118.641,120.425 118.641,121.259 117.5,122C 119.305,123.441 121.305,123.608 123.5,122.5C 123.201,120.396 123.534,118.396 124.5,116.5C 124.669,117.397 125.002,118.397 125.5,119.5C 126.687,118.347 127.687,118.347 128.5,119.5C 123.509,125.823 118.176,131.823 112.5,137.5C 112.762,136.022 112.429,134.689 111.5,133.5C 109.939,134.347 108.439,134.014 107,132.5C 107.376,128.194 105.71,127.527 102,130.5C 101.075,129.953 100.242,129.287 99.5,128.5C 97.2429,124.033 94.9096,119.533 92.5,115C 93.6568,110.673 95.6568,106.839 98.5,103.5C 98.001,100.696 99.001,98.1963 101.5,96C 101.07,95.0805 100.736,94.2472 100.5,93.5C 99.0603,94.9524 97.3936,95.9524 95.5,96.5C 99.5,91.8333 103.833,87.5 108.5,83.5 Z"/></g>
<g><path style="opacity:1" fill="#2c81a8" d="M 82.5,102.5 C 83.9418,103.82 84.6085,105.486 84.5,107.5C 83.925,109.411 82.925,111.078 81.5,112.5C 78.8482,116.482 75.8482,120.149 72.5,123.5C 72.983,121.696 72.3163,120.029 70.5,118.5C 72.1295,114.887 74.1295,111.554 76.5,108.5C 78.8606,106.806 80.8606,104.806 82.5,102.5 Z"/></g>
<g><path style="opacity:1" fill="#155b9e" d="M 22.5,110.5 C 23.3171,112.969 23.8171,115.635 24,118.5C 25.9427,118.041 27.276,119.041 28,121.5C 28.3333,121.167 28.6667,120.833 29,120.5C 29.3589,123.544 30.0255,123.878 31,121.5C 33.073,124.405 35.573,125.905 38.5,126C 39.8659,127.6 40.8659,129.433 41.5,131.5C 42.086,131.291 42.586,130.957 43,130.5C 43.3333,131.833 43.6667,133.167 44,134.5C 44.3333,133.833 44.6667,133.167 45,132.5C 46.1341,133.425 47.3008,134.425 48.5,135.5C 48.3333,136.167 48.1667,136.833 48,137.5C 46.627,137.596 45.127,137.43 43.5,137C 44.4506,137.718 44.6172,138.551 44,139.5C 41.3622,139.753 38.6956,139.086 36,137.5C 35.228,137.645 34.5613,137.978 34,138.5C 33.7822,135.574 33.2822,132.74 32.5,130C 32.9574,129.586 33.2907,129.086 33.5,128.5C 32.5,124.5 31.5,124.5 30.5,128.5C 30.8333,131.167 31.1667,133.833 31.5,136.5C 30.6406,137.774 29.9739,137.608 29.5,136C 29.5075,133.507 28.6741,131.007 27,128.5C 26.6306,132.863 26.1306,137.196 25.5,141.5C 24.2921,140.766 22.9587,140.433 21.5,140.5C 21.058,144.847 20.2247,145.18 19,141.5C 18,142.167 17,142.833 16,143.5C 15.5004,150.492 15.3337,157.492 15.5,164.5C 13.6974,145.979 16.0307,127.979 22.5,110.5 Z"/></g>
<g><path style="opacity:1" fill="#298ca6" d="M 167.5,96.5 C 150.908,114.259 136.408,133.592 124,154.5C 121.782,159.59 119.616,164.59 117.5,169.5C 116.883,169.389 116.383,169.056 116,168.5C 115.834,172.511 115,173.011 113.5,170C 114.8,168.421 114.466,167.255 112.5,166.5C 112.67,165.178 112.337,164.011 111.5,163C 109.616,162.784 107.949,162.117 106.5,161C 107.138,159.293 107.138,157.46 106.5,155.5C 124.705,130.462 144.872,107.129 167,85.5C 167.707,83.9194 168.54,82.4194 169.5,81C 168.906,80.5357 168.239,80.369 167.5,80.5C 170.167,77.1667 173.167,74.1667 176.5,71.5C 177.496,71.5858 178.329,71.2524 179,70.5C 179.667,71.1667 179.667,71.8333 179,72.5C 175.104,76.7249 171.604,81.2249 168.5,86C 168.63,87.0588 169.13,87.8921 170,88.5C 170.718,87.5494 171.551,87.3828 172.5,88C 170.576,89.9053 168.243,91.072 165.5,91.5C 164.386,92.723 164.219,94.0563 165,95.5C 166.159,94.434 166.992,94.7673 167.5,96.5 Z"/></g>
<g><path style="opacity:1" fill="#012052" d="M 112.5,137.5 C 106.167,146.167 99.8333,154.833 93.5,163.5C 93.1667,163.5 92.8333,163.5 92.5,163.5C 92.19,162.262 91.69,162.262 91,163.5C 89.5836,159.594 86.7503,157.261 82.5,156.5C 80.9335,153.593 79.1002,150.926 77,148.5C 76.6667,150.167 76.3333,151.833 76,153.5C 74.7968,149.995 73.2968,146.662 71.5,143.5C 77.1287,133.07 83.1287,122.903 89.5,113C 89.0696,111.566 88.2362,110.399 87,109.5C 85.5123,111.16 83.679,112.16 81.5,112.5C 82.925,111.078 83.925,109.411 84.5,107.5C 88.5,104.167 92.1667,100.5 95.5,96.5C 97.3936,95.9524 99.0603,94.9524 100.5,93.5C 100.736,94.2472 101.07,95.0805 101.5,96C 99.001,98.1963 98.001,100.696 98.5,103.5C 95.6568,106.839 93.6568,110.673 92.5,115C 94.9096,119.533 97.2429,124.033 99.5,128.5C 100.242,129.287 101.075,129.953 102,130.5C 105.71,127.527 107.376,128.194 107,132.5C 108.439,134.014 109.939,134.347 111.5,133.5C 112.429,134.689 112.762,136.022 112.5,137.5 Z"/></g>
<g><path style="opacity:1" fill="#4da9b7" d="M 167.5,80.5 C 168.239,80.369 168.906,80.5357 169.5,81C 168.54,82.4194 167.707,83.9194 167,85.5C 144.872,107.129 124.705,130.462 106.5,155.5C 104.738,156.262 103.738,157.596 103.5,159.5C 99.9891,160.845 96.8225,162.845 94,165.5C 93.5357,164.906 93.369,164.239 93.5,163.5C 99.8333,154.833 106.167,146.167 112.5,137.5C 118.176,131.823 123.509,125.823 128.5,119.5C 132.067,116.023 135.4,112.356 138.5,108.5C 143.167,104.5 147.5,100.167 151.5,95.5C 156.833,90.5 162.167,85.5 167.5,80.5 Z"/></g>
<g><path style="opacity:1" fill="#051748" d="M 92.5,163.5 C 86.6575,173.183 81.3242,183.183 76.5,193.5C 75.8333,194.167 75.1667,194.833 74.5,195.5C 75.1601,190.901 76.3267,186.568 78,182.5C 76.0448,183.453 74.3782,184.787 73,186.5C 71.456,183.736 70.2893,183.903 69.5,187C 70.5171,188.049 70.6838,189.216 70,190.5C 68.4294,187.927 66.596,185.594 64.5,183.5C 63.846,181.885 63.346,180.218 63,178.5C 62.6667,178.833 62.3333,179.167 62,179.5C 61.2306,175.064 60.8972,170.73 61,166.5C 59.4152,167.376 58.4152,168.709 58,170.5C 56.3333,167.833 54.6667,167.833 53,170.5C 52.479,173.874 51.1457,176.874 49,179.5C 48.323,177.311 47.1563,176.978 45.5,178.5C 44.6143,177.675 44.281,176.675 44.5,175.5C 44.5,175.167 44.5,174.833 44.5,174.5C 46.4974,169.838 48.4974,165.171 50.5,160.5C 57.0746,147.679 64.4079,135.346 72.5,123.5C 75.8482,120.149 78.8482,116.482 81.5,112.5C 83.679,112.16 85.5123,111.16 87,109.5C 88.2362,110.399 89.0696,111.566 89.5,113C 83.1287,122.903 77.1287,133.07 71.5,143.5C 73.2968,146.662 74.7968,149.995 76,153.5C 76.3333,151.833 76.6667,150.167 77,148.5C 79.1002,150.926 80.9335,153.593 82.5,156.5C 86.7503,157.261 89.5836,159.594 91,163.5C 91.69,162.262 92.19,162.262 92.5,163.5 Z"/></g>
<g><path style="opacity:1" fill="#92d8d9" d="M 273.5,148.5 C 262.601,163.737 250.934,178.404 238.5,192.5C 235.21,194.316 232.544,196.816 230.5,200C 227.78,200.797 225.28,201.963 223,203.5C 222.329,202.748 221.496,202.414 220.5,202.5C 221.833,200.833 223.167,199.167 224.5,197.5C 231.419,191.248 238.085,184.581 244.5,177.5C 252.664,168.759 259.331,159.426 264.5,149.5C 264.611,148.883 264.944,148.383 265.5,148C 268.367,147.199 271.034,147.366 273.5,148.5 Z"/></g>
<g><path style="opacity:1" fill="#7ad0d1" d="M 273.5,148.5 C 274.496,148.414 275.329,148.748 276,149.5C 277,151.5 278,153.5 279,155.5C 279.792,164.914 279.292,174.247 277.5,183.5C 275.933,184.681 275.099,186.347 275,188.5C 270.113,188.486 265.279,189.652 260.5,192C 257.215,192.824 253.882,193.324 250.5,193.5C 247.838,192.967 245.338,192.967 243,193.5C 241.739,193.241 240.739,192.574 240,191.5C 239.617,192.056 239.117,192.389 238.5,192.5C 250.934,178.404 262.601,163.737 273.5,148.5 Z"/></g>
<g><path style="opacity:1" fill="#035096" d="M 25.5,141.5 C 27.737,142.807 29.237,144.807 30,147.5C 30.6543,146.304 31.1543,146.304 31.5,147.5C 30.5109,148.468 29.8443,149.635 29.5,151C 30.6387,153.629 31.972,156.129 33.5,158.5C 32.2373,160.981 32.4039,163.315 34,165.5C 34.3333,165.167 34.6667,164.833 35,164.5C 36.4389,166.275 37.4389,168.275 38,170.5C 39.5185,170.943 40.6852,170.276 41.5,168.5C 41.9642,170.975 42.9642,172.975 44.5,174.5C 44.5,174.833 44.5,175.167 44.5,175.5C 37.6366,191.336 34.6366,208.003 35.5,225.5C 23.7748,206.973 17.1081,186.64 15.5,164.5C 15.3337,157.492 15.5004,150.492 16,143.5C 17,142.833 18,142.167 19,141.5C 20.2247,145.18 21.058,144.847 21.5,140.5C 22.9587,140.433 24.2921,140.766 25.5,141.5 Z"/></g>
<g><path style="opacity:1" fill="#217f9d" d="M 106.5,155.5 C 107.138,157.46 107.138,159.293 106.5,161C 107.949,162.117 109.616,162.784 111.5,163C 112.337,164.011 112.67,165.178 112.5,166.5C 109.753,172.486 108.086,178.819 107.5,185.5C 106.842,184.602 106.176,183.602 105.5,182.5C 104.393,183.022 103.226,183.355 102,183.5C 99.5934,182.37 97.0934,181.537 94.5,181C 93.5399,179.581 92.7065,178.081 92,176.5C 91.6232,177.942 90.7899,178.942 89.5,179.5C 93.9849,172.728 98.6516,166.061 103.5,159.5C 103.738,157.596 104.738,156.262 106.5,155.5 Z"/></g>
<g><path style="opacity:1" fill="#4293a8" d="M 103.5,159.5 C 98.6516,166.061 93.9849,172.728 89.5,179.5C 89.5,179.833 89.5,180.167 89.5,180.5C 86.5787,183.242 84.5787,186.575 83.5,190.5C 82.8333,190.5 82.5,190.833 82.5,191.5C 80.5633,192.59 78.73,193.924 77,195.5C 76.5357,194.906 76.369,194.239 76.5,193.5C 81.3242,183.183 86.6575,173.183 92.5,163.5C 92.8333,163.5 93.1667,163.5 93.5,163.5C 93.369,164.239 93.5357,164.906 94,165.5C 96.8225,162.845 99.9891,160.845 103.5,159.5 Z"/></g>
<g><path style="opacity:1" fill="#67b6bf" d="M 264.5,149.5 C 259.331,159.426 252.664,168.759 244.5,177.5C 245.896,173.357 244.563,172.19 240.5,174C 234.548,180.282 228.215,186.282 221.5,192C 217.31,192.81 213.31,192.31 209.5,190.5C 217.605,185.607 225.605,180.44 233.5,175C 243.998,166.666 254.331,158.166 264.5,149.5 Z"/></g>
<g><path style="opacity:1" fill="#071245" d="M 74.5,195.5 C 73.2967,199.11 72.2967,202.777 71.5,206.5C 69.8631,209.717 68.5298,213.05 67.5,216.5C 65.9032,215.263 64.7365,213.596 64,211.5C 61.6099,213.267 59.9432,215.6 59,218.5C 57.9563,217.377 57.2896,216.044 57,214.5C 56.8295,216.715 56.1628,218.715 55,220.5C 53.8468,217.289 53.1802,213.956 53,210.5C 51.984,209.366 51.3173,209.699 51,211.5C 46.7532,206.719 44.2532,208.053 43.5,215.5C 42.5723,217.335 41.4056,217.668 40,216.5C 39.7104,218.044 39.0437,219.377 38,220.5C 37.6667,219.833 37.3333,219.167 37,218.5C 36.5026,221.146 36.3359,223.813 36.5,226.5C 35.8333,226.5 35.5,226.167 35.5,225.5C 34.6366,208.003 37.6366,191.336 44.5,175.5C 44.281,176.675 44.6143,177.675 45.5,178.5C 47.1563,176.978 48.323,177.311 49,179.5C 51.1457,176.874 52.479,173.874 53,170.5C 54.6667,167.833 56.3333,167.833 58,170.5C 58.4152,168.709 59.4152,167.376 61,166.5C 60.8972,170.73 61.2306,175.064 62,179.5C 62.3333,179.167 62.6667,178.833 63,178.5C 63.346,180.218 63.846,181.885 64.5,183.5C 66.596,185.594 68.4294,187.927 70,190.5C 70.6838,189.216 70.5171,188.049 69.5,187C 70.2893,183.903 71.456,183.736 73,186.5C 74.3782,184.787 76.0448,183.453 78,182.5C 76.3267,186.568 75.1601,190.901 74.5,195.5 Z"/></g>
<g><path style="opacity:1" fill="#1d6e8d" d="M 107.5,185.5 C 109.405,205.07 120.071,216.07 139.5,218.5C 146.019,219.698 152.686,220.864 159.5,222C 162.726,223.198 165.559,225.031 168,227.5C 172.75,225.879 176.917,223.379 180.5,220C 182.519,219.55 184.352,218.717 186,217.5C 187.016,218.634 187.683,218.301 188,216.5C 190.641,217.732 192.807,219.398 194.5,221.5C 193.306,222.272 192.306,223.272 191.5,224.5C 185.83,227.838 180.164,231.171 174.5,234.5C 171.351,232.618 168.184,231.285 165,230.5C 162.482,232.464 159.816,233.13 157,232.5C 156.517,233.448 156.351,234.448 156.5,235.5C 152.273,235.352 148.273,236.686 144.5,239.5C 142.509,239.682 140.509,239.182 138.5,238C 141.675,236.299 144.675,234.465 147.5,232.5C 144.745,230.568 142.245,230.235 140,231.5C 139.683,229.699 139.016,229.366 138,230.5C 134.325,228.935 130.991,226.935 128,224.5C 127.667,224.833 127.333,225.167 127,225.5C 121.473,222.574 115.973,219.574 110.5,216.5C 112.119,215.928 113.785,215.595 115.5,215.5C 116.724,216.766 118.057,217.933 119.5,219C 122.482,219.498 125.482,219.665 128.5,219.5C 128.671,216.203 128.005,215.869 126.5,218.5C 124.556,217.811 122.556,217.311 120.5,217C 116.787,213.588 112.954,210.421 109,207.5C 108.667,208.167 108.333,208.833 108,209.5C 105.721,207.837 103.387,206.17 101,204.5C 99.6361,205.258 98.4695,204.758 97.5,203C 100.206,200.629 102.539,197.963 104.5,195C 100.719,193.699 96.8855,191.865 93,189.5C 92.6667,189.833 92.3333,190.167 92,190.5C 91.5814,189.328 90.9147,188.328 90,187.5C 89.874,184.937 89.7073,182.604 89.5,180.5C 89.5,180.167 89.5,179.833 89.5,179.5C 90.7899,178.942 91.6232,177.942 92,176.5C 92.7065,178.081 93.5399,179.581 94.5,181C 97.0934,181.537 99.5934,182.37 102,183.5C 103.226,183.355 104.393,183.022 105.5,182.5C 106.176,183.602 106.842,184.602 107.5,185.5 Z"/></g>
<g><path style="opacity:1" fill="#69bec3" d="M 277.5,183.5 C 277.66,185.199 277.494,186.866 277,188.5C 275.283,194.396 273.116,200.062 270.5,205.5C 270.071,204.047 269.904,202.381 270,200.5C 268.192,200.888 266.525,200.888 265,200.5C 261.038,204.717 256.371,206.717 251,206.5C 248,207.167 245,207.833 242,208.5C 236.252,207.414 231.085,205.748 226.5,203.5C 220.825,207.846 215.492,212.512 210.5,217.5C 205.223,220.812 199.889,224.145 194.5,227.5C 192.53,226.557 191.03,227.224 190,229.5C 189.5,229 189,228.5 188.5,228C 189.71,226.961 190.71,225.794 191.5,224.5C 192.306,223.272 193.306,222.272 194.5,221.5C 202.783,215.885 210.783,209.885 218.5,203.5C 219.167,203.167 219.833,202.833 220.5,202.5C 221.496,202.414 222.329,202.748 223,203.5C 225.28,201.963 227.78,200.797 230.5,200C 232.544,196.816 235.21,194.316 238.5,192.5C 239.117,192.389 239.617,192.056 240,191.5C 240.739,192.574 241.739,193.241 243,193.5C 245.338,192.967 247.838,192.967 250.5,193.5C 253.882,193.324 257.215,192.824 260.5,192C 265.279,189.652 270.113,188.486 275,188.5C 275.099,186.347 275.933,184.681 277.5,183.5 Z"/></g>
<g><path style="opacity:1" fill="#196c91" d="M 89.5,180.5 C 89.7073,182.604 89.874,184.937 90,187.5C 90.9147,188.328 91.5814,189.328 92,190.5C 92.3333,190.167 92.6667,189.833 93,189.5C 96.8855,191.865 100.719,193.699 104.5,195C 102.539,197.963 100.206,200.629 97.5,203C 98.4695,204.758 99.6361,205.258 101,204.5C 103.387,206.17 105.721,207.837 108,209.5C 108.333,208.833 108.667,208.167 109,207.5C 112.954,210.421 116.787,213.588 120.5,217C 122.556,217.311 124.556,217.811 126.5,218.5C 128.005,215.869 128.671,216.203 128.5,219.5C 125.482,219.665 122.482,219.498 119.5,219C 118.057,217.933 116.724,216.766 115.5,215.5C 113.785,215.595 112.119,215.928 110.5,216.5C 101.183,212.696 92.1834,208.196 83.5,203C 82.2351,201.663 81.7351,200.163 82,198.5C 84.4009,199.602 86.9009,199.769 89.5,199C 86.6157,196.711 84.6157,193.877 83.5,190.5C 84.5787,186.575 86.5787,183.242 89.5,180.5 Z"/></g>
<g><path style="opacity:1" fill="#51a1ae" d="M 244.5,177.5 C 238.085,184.581 231.419,191.248 224.5,197.5C 223.685,196.163 222.518,195.163 221,194.5C 220.259,195.641 219.425,195.641 218.5,194.5C 216.047,196.92 213.047,198.086 209.5,198C 202.03,201.981 194.697,205.481 187.5,208.5C 186.452,207.617 185.285,206.95 184,206.5C 182.212,207.3 180.545,207.634 179,207.5C 177.211,205.771 175.044,205.104 172.5,205.5C 185.096,201.376 197.429,196.376 209.5,190.5C 213.31,192.31 217.31,192.81 221.5,192C 228.215,186.282 234.548,180.282 240.5,174C 244.563,172.19 245.896,173.357 244.5,177.5 Z"/></g>
<g><path style="opacity:1" fill="#4092a5" d="M 112.5,166.5 C 114.466,167.255 114.8,168.421 113.5,170C 115,173.011 115.834,172.511 116,168.5C 116.383,169.056 116.883,169.389 117.5,169.5C 112.543,194.193 122.543,207.193 147.5,208.5C 155.88,207.825 164.214,206.825 172.5,205.5C 175.044,205.104 177.211,205.771 179,207.5C 180.545,207.634 182.212,207.3 184,206.5C 185.285,206.95 186.452,207.617 187.5,208.5C 194.697,205.481 202.03,201.981 209.5,198C 213.047,198.086 216.047,196.92 218.5,194.5C 219.425,195.641 220.259,195.641 221,194.5C 222.518,195.163 223.685,196.163 224.5,197.5C 223.167,199.167 221.833,200.833 220.5,202.5C 219.833,202.833 219.167,203.167 218.5,203.5C 214.752,201.034 210.752,200.867 206.5,203C 206.833,203.333 207.167,203.667 207.5,204C 206.128,204.402 204.795,204.902 203.5,205.5C 199.186,209.386 195.02,212.72 191,215.5C 188.419,215.879 185.919,215.213 183.5,213.5C 182.228,213.57 181.062,213.903 180,214.5C 179.851,211.721 179.017,211.221 177.5,213C 171.344,213.706 165.344,215.039 159.5,217C 152.864,217.952 146.197,218.452 139.5,218.5C 120.071,216.07 109.405,205.07 107.5,185.5C 108.086,178.819 109.753,172.486 112.5,166.5 Z"/></g>
<g><path style="opacity:1" fill="#317a98" d="M 82.5,191.5 C 80.1788,196.812 77.8455,202.145 75.5,207.5C 72.8002,210.075 71.4668,209.742 71.5,206.5C 72.2967,202.777 73.2967,199.11 74.5,195.5C 75.1667,194.833 75.8333,194.167 76.5,193.5C 76.369,194.239 76.5357,194.906 77,195.5C 78.73,193.924 80.5633,192.59 82.5,191.5 Z"/></g>
<g><path style="opacity:1" fill="#57b2ba" d="M 270.5,205.5 C 268.956,210.919 266.622,215.919 263.5,220.5C 262.867,220.12 262.2,219.787 261.5,219.5C 262.167,218.833 262.833,218.167 263.5,217.5C 263,217.167 262.5,216.833 262,216.5C 257.324,218.042 252.991,218.375 249,217.5C 242.817,219.76 236.483,221.426 230,222.5C 226.617,222.34 223.617,221.34 221,219.5C 220.667,220.167 220.333,220.833 220,221.5C 217.162,219.538 214.162,219.205 211,220.5C 209.317,219.824 209.15,218.824 210.5,217.5C 215.492,212.512 220.825,207.846 226.5,203.5C 231.085,205.748 236.252,207.414 242,208.5C 245,207.833 248,207.167 251,206.5C 256.371,206.717 261.038,204.717 265,200.5C 266.525,200.888 268.192,200.888 270,200.5C 269.904,202.381 270.071,204.047 270.5,205.5 Z"/></g>
<g><path style="opacity:1" fill="#09123e" d="M 67.5,216.5 C 67.5,218.5 67.5,220.5 67.5,222.5C 64.1635,237.489 67.8302,250.489 78.5,261.5C 74.9288,260.358 71.2621,259.691 67.5,259.5C 54.7483,250.749 44.415,239.749 36.5,226.5C 36.3359,223.813 36.5026,221.146 37,218.5C 37.3333,219.167 37.6667,219.833 38,220.5C 39.0437,219.377 39.7104,218.044 40,216.5C 41.4056,217.668 42.5723,217.335 43.5,215.5C 44.2532,208.053 46.7532,206.719 51,211.5C 51.3173,209.699 51.984,209.366 53,210.5C 53.1802,213.956 53.8468,217.289 55,220.5C 56.1628,218.715 56.8295,216.715 57,214.5C 57.2896,216.044 57.9563,217.377 59,218.5C 59.9432,215.6 61.6099,213.267 64,211.5C 64.7365,213.596 65.9032,215.263 67.5,216.5 Z"/></g>
<g><path style="opacity:1" fill="#15638a" d="M 83.5,190.5 C 84.6157,193.877 86.6157,196.711 89.5,199C 86.9009,199.769 84.4009,199.602 82,198.5C 81.7351,200.163 82.2351,201.663 83.5,203C 92.1834,208.196 101.183,212.696 110.5,216.5C 115.973,219.574 121.473,222.574 127,225.5C 127.333,225.167 127.667,224.833 128,224.5C 130.991,226.935 134.325,228.935 138,230.5C 139.016,229.366 139.683,229.699 140,231.5C 142.245,230.235 144.745,230.568 147.5,232.5C 144.675,234.465 141.675,236.299 138.5,238C 140.509,239.182 142.509,239.682 144.5,239.5C 143.833,239.833 143.167,240.167 142.5,240.5C 139.167,241.5 135.833,242.5 132.5,243.5C 129.191,243.692 126.691,242.359 125,239.5C 123.757,240.336 122.59,240.003 121.5,238.5C 124.132,237.743 126.632,237.41 129,237.5C 129.333,238.167 129.667,238.833 130,239.5C 131.113,238.289 132.28,238.289 133.5,239.5C 133.833,239.167 134.167,238.833 134.5,238.5C 133.066,237.77 131.9,236.77 131,235.5C 130.667,235.833 130.333,236.167 130,236.5C 122.073,230.582 114.073,226.249 106,223.5C 100.87,220.685 95.7031,218.019 90.5,215.5C 88.9299,215.694 87.4299,215.694 86,215.5C 82.2293,213.667 79.5626,210.334 78,205.5C 77.7073,207.925 76.5407,209.758 74.5,211C 75.1712,211.986 75.1712,213.153 74.5,214.5C 73.7724,219.451 73.2724,224.451 73,229.5C 71.8118,228.437 71.3118,227.103 71.5,225.5C 70.0413,225.433 68.7079,225.766 67.5,226.5C 67.5,225.167 67.5,223.833 67.5,222.5C 67.5,220.5 67.5,218.5 67.5,216.5C 68.5298,213.05 69.8631,209.717 71.5,206.5C 71.4668,209.742 72.8002,210.075 75.5,207.5C 77.8455,202.145 80.1788,196.812 82.5,191.5C 82.5,190.833 82.8333,190.5 83.5,190.5 Z"/></g>
<g><path style="opacity:1" fill="#2d7a90" d="M 218.5,203.5 C 210.783,209.885 202.783,215.885 194.5,221.5C 192.807,219.398 190.641,217.732 188,216.5C 187.683,218.301 187.016,218.634 186,217.5C 184.352,218.717 182.519,219.55 180.5,220C 176.917,223.379 172.75,225.879 168,227.5C 165.559,225.031 162.726,223.198 159.5,222C 152.686,220.864 146.019,219.698 139.5,218.5C 146.197,218.452 152.864,217.952 159.5,217C 165.344,215.039 171.344,213.706 177.5,213C 179.017,211.221 179.851,211.721 180,214.5C 181.062,213.903 182.228,213.57 183.5,213.5C 185.919,215.213 188.419,215.879 191,215.5C 195.02,212.72 199.186,209.386 203.5,205.5C 204.795,204.902 206.128,204.402 207.5,204C 207.167,203.667 206.833,203.333 206.5,203C 210.752,200.867 214.752,201.034 218.5,203.5 Z"/></g>
<g><path style="opacity:1" fill="#0f5783" d="M 132.5,243.5 C 130.701,244.748 128.867,245.748 127,246.5C 126.275,245.941 125.442,245.608 124.5,245.5C 120.543,247.23 116.543,248.897 112.5,250.5C 110.997,249.948 109.331,249.948 107.5,250.5C 102.562,248.698 97.8955,246.364 93.5,243.5C 93.6495,242.448 93.4828,241.448 93,240.5C 92.6667,240.833 92.3333,241.167 92,241.5C 90.7295,240.295 90.0628,238.962 90,237.5C 111.597,245.437 112.597,243.77 93,232.5C 92.6667,232.833 92.3333,233.167 92,233.5C 91,232.167 90,230.833 89,229.5C 87.2513,230.299 85.918,229.632 85,227.5C 84.6667,227.833 84.3333,228.167 84,228.5C 81.4201,226.747 78.5868,225.747 75.5,225.5C 75.238,224.022 75.5713,222.689 76.5,221.5C 78.4134,222.373 80.2467,223.373 82,224.5C 82.3333,224.167 82.6667,223.833 83,223.5C 85.3931,225.367 87.8931,226.034 90.5,225.5C 92.5011,229.492 94.8345,229.992 97.5,227C 95.2083,225.862 93.2083,224.362 91.5,222.5C 90.914,222.709 90.414,223.043 90,223.5C 87.0887,221.876 83.922,220.71 80.5,220C 78.6298,217.96 76.6298,216.127 74.5,214.5C 75.1712,213.153 75.1712,211.986 74.5,211C 76.5407,209.758 77.7073,207.925 78,205.5C 79.5626,210.334 82.2293,213.667 86,215.5C 87.4299,215.694 88.9299,215.694 90.5,215.5C 95.7031,218.019 100.87,220.685 106,223.5C 114.073,226.249 122.073,230.582 130,236.5C 130.333,236.167 130.667,235.833 131,235.5C 131.9,236.77 133.066,237.77 134.5,238.5C 134.167,238.833 133.833,239.167 133.5,239.5C 132.28,238.289 131.113,238.289 130,239.5C 129.667,238.833 129.333,238.167 129,237.5C 126.632,237.41 124.132,237.743 121.5,238.5C 122.59,240.003 123.757,240.336 125,239.5C 126.691,242.359 129.191,243.692 132.5,243.5 Z"/></g>
<g><path style="opacity:1" fill="#0e5081" d="M 74.5,214.5 C 76.6298,216.127 78.6298,217.96 80.5,220C 83.922,220.71 87.0887,221.876 90,223.5C 90.414,223.043 90.914,222.709 91.5,222.5C 93.2083,224.362 95.2083,225.862 97.5,227C 94.8345,229.992 92.5011,229.492 90.5,225.5C 87.8931,226.034 85.3931,225.367 83,223.5C 82.6667,223.833 82.3333,224.167 82,224.5C 80.2467,223.373 78.4134,222.373 76.5,221.5C 75.5713,222.689 75.238,224.022 75.5,225.5C 78.5868,225.747 81.4201,226.747 84,228.5C 84.3333,228.167 84.6667,227.833 85,227.5C 85.918,229.632 87.2513,230.299 89,229.5C 90,230.833 91,232.167 92,233.5C 92.3333,233.167 92.6667,232.833 93,232.5C 112.597,243.77 111.597,245.437 90,237.5C 90.0628,238.962 90.7295,240.295 92,241.5C 92.3333,241.167 92.6667,240.833 93,240.5C 93.4828,241.448 93.6495,242.448 93.5,243.5C 97.8955,246.364 102.562,248.698 107.5,250.5C 104.833,250.5 102.167,250.5 99.5,250.5C 91.194,250.958 84.194,248.291 78.5,242.5C 76.2791,238.551 73.9458,234.717 71.5,231C 68.4525,230.42 68.1192,230.753 70.5,232C 69.552,232.483 68.552,232.649 67.5,232.5C 67.5,230.5 67.5,228.5 67.5,226.5C 68.7079,225.766 70.0413,225.433 71.5,225.5C 71.3118,227.103 71.8118,228.437 73,229.5C 73.2724,224.451 73.7724,219.451 74.5,214.5 Z"/></g>
<g><path style="opacity:1" fill="#479eac" d="M 263.5,220.5 C 260.94,225.277 258.107,229.944 255,234.5C 253.961,235.71 252.794,236.71 251.5,237.5C 247.655,236.039 243.322,235.372 238.5,235.5C 232.21,235.764 226.043,236.764 220,238.5C 214.916,238.093 209.916,237.427 205,236.5C 204.586,236.957 204.086,237.291 203.5,237.5C 199.162,237.042 194.996,236.042 191,234.5C 190,234.833 189,235.167 188,235.5C 187.692,234.692 187.192,234.025 186.5,233.5C 181.303,236.261 176.303,239.261 171.5,242.5C 167.345,243.742 163.678,245.742 160.5,248.5C 156.677,249.989 153.01,251.656 149.5,253.5C 144.888,255.536 140.055,256.869 135,257.5C 133.5,257.167 132,256.833 130.5,256.5C 130.863,255.817 131.196,255.15 131.5,254.5C 136.467,253.012 141.134,251.012 145.5,248.5C 155.599,244.616 165.266,239.95 174.5,234.5C 180.164,231.171 185.83,227.838 191.5,224.5C 190.71,225.794 189.71,226.961 188.5,228C 189,228.5 189.5,229 190,229.5C 191.03,227.224 192.53,226.557 194.5,227.5C 199.889,224.145 205.223,220.812 210.5,217.5C 209.15,218.824 209.317,219.824 211,220.5C 214.162,219.205 217.162,219.538 220,221.5C 220.333,220.833 220.667,220.167 221,219.5C 223.617,221.34 226.617,222.34 230,222.5C 236.483,221.426 242.817,219.76 249,217.5C 252.991,218.375 257.324,218.042 262,216.5C 262.5,216.833 263,217.167 263.5,217.5C 262.833,218.167 262.167,218.833 261.5,219.5C 262.2,219.787 262.867,220.12 263.5,220.5 Z"/></g>
<g><path style="opacity:1" fill="#17577b" d="M 174.5,234.5 C 165.266,239.95 155.599,244.616 145.5,248.5C 146.23,246.955 147.563,246.122 149.5,246C 147.103,244.282 144.436,243.115 141.5,242.5C 141.863,241.817 142.196,241.15 142.5,240.5C 143.167,240.167 143.833,239.833 144.5,239.5C 148.273,236.686 152.273,235.352 156.5,235.5C 156.351,234.448 156.517,233.448 157,232.5C 159.816,233.13 162.482,232.464 165,230.5C 168.184,231.285 171.351,232.618 174.5,234.5 Z"/></g>
<g><path style="opacity:1" fill="#083768" d="M 67.5,222.5 C 67.5,223.833 67.5,225.167 67.5,226.5C 67.5,228.5 67.5,230.5 67.5,232.5C 68.552,232.649 69.552,232.483 70.5,232C 68.1192,230.753 68.4525,230.42 71.5,231C 73.9458,234.717 76.2791,238.551 78.5,242.5C 84.194,248.291 91.194,250.958 99.5,250.5C 101.112,252.298 102.612,254.298 104,256.5C 105.749,255.701 107.082,256.368 108,258.5C 108.805,256.099 109.638,256.266 110.5,259C 109.944,259.383 109.611,259.883 109.5,260.5C 105.257,261.681 100.924,262.348 96.5,262.5C 90.4406,262.746 84.4406,262.413 78.5,261.5C 67.8302,250.489 64.1635,237.489 67.5,222.5 Z"/></g>
<g><path style="opacity:1" fill="#3891a4" d="M 251.5,237.5 C 248.564,242.105 244.898,246.105 240.5,249.5C 238.572,247.887 236.238,246.887 233.5,246.5C 222.281,246.007 210.448,246.674 198,248.5C 192.903,247.976 187.903,246.976 183,245.5C 182.667,245.833 182.333,246.167 182,246.5C 178.604,244.948 175.104,243.614 171.5,242.5C 176.303,239.261 181.303,236.261 186.5,233.5C 187.192,234.025 187.692,234.692 188,235.5C 189,235.167 190,234.833 191,234.5C 194.996,236.042 199.162,237.042 203.5,237.5C 204.086,237.291 204.586,236.957 205,236.5C 209.916,237.427 214.916,238.093 220,238.5C 226.043,236.764 232.21,235.764 238.5,235.5C 243.322,235.372 247.655,236.039 251.5,237.5 Z"/></g>
<g><path style="opacity:1" fill="#2f879c" d="M 171.5,242.5 C 175.104,243.614 178.604,244.948 182,246.5C 182.333,246.167 182.667,245.833 183,245.5C 187.903,246.976 192.903,247.976 198,248.5C 210.448,246.674 222.281,246.007 233.5,246.5C 236.238,246.887 238.572,247.887 240.5,249.5C 238.12,252.881 235.12,255.547 231.5,257.5C 230.688,256.007 229.355,255.34 227.5,255.5C 219.943,255.591 212.443,255.591 205,255.5C 204.333,256.167 203.667,256.833 203,257.5C 194.59,256.336 185.923,256.336 177,257.5C 174.05,256.608 171.383,255.275 169,253.5C 167.333,253.5 165.667,253.5 164,253.5C 162.245,251.854 161.078,250.187 160.5,248.5C 163.678,245.742 167.345,243.742 171.5,242.5 Z"/></g>
<g><path style="opacity:1" fill="#257b94" d="M 160.5,248.5 C 161.078,250.187 162.245,251.854 164,253.5C 165.667,253.5 167.333,253.5 169,253.5C 171.383,255.275 174.05,256.608 177,257.5C 185.923,256.336 194.59,256.336 203,257.5C 203.667,256.833 204.333,256.167 205,255.5C 212.443,255.591 219.943,255.591 227.5,255.5C 229.355,255.34 230.688,256.007 231.5,257.5C 224.852,263.162 217.519,267.829 209.5,271.5C 208.402,270.603 208.402,269.77 209.5,269C 208.833,267.667 207.833,266.667 206.5,266C 207.416,265.626 208.25,265.126 209,264.5C 211.216,265.392 213.716,265.392 216.5,264.5C 214.031,263.964 211.864,262.964 210,261.5C 209.5,262 209,262.5 208.5,263C 201.764,263.661 194.931,264.827 188,266.5C 184.924,265.712 181.758,265.212 178.5,265C 183.882,264.693 189.215,264.026 194.5,263C 184.14,263.484 173.806,262.817 163.5,261C 158.893,257.541 154.226,255.041 149.5,253.5C 153.01,251.656 156.677,249.989 160.5,248.5 Z"/></g>
<g><path style="opacity:1" fill="#0d416e" d="M 142.5,240.5 C 142.196,241.15 141.863,241.817 141.5,242.5C 144.436,243.115 147.103,244.282 149.5,246C 147.563,246.122 146.23,246.955 145.5,248.5C 141.134,251.012 136.467,253.012 131.5,254.5C 124.34,257.077 117.007,259.077 109.5,260.5C 109.611,259.883 109.944,259.383 110.5,259C 109.638,256.266 108.805,256.099 108,258.5C 107.082,256.368 105.749,255.701 104,256.5C 102.612,254.298 101.112,252.298 99.5,250.5C 102.167,250.5 104.833,250.5 107.5,250.5C 109.331,249.948 110.997,249.948 112.5,250.5C 116.543,248.897 120.543,247.23 124.5,245.5C 125.442,245.608 126.275,245.941 127,246.5C 128.867,245.748 130.701,244.748 132.5,243.5C 135.833,242.5 139.167,241.5 142.5,240.5 Z"/></g>
<g><path style="opacity:1" fill="#1d7191" d="M 149.5,253.5 C 154.226,255.041 158.893,257.541 163.5,261C 173.806,262.817 184.14,263.484 194.5,263C 189.215,264.026 183.882,264.693 178.5,265C 181.758,265.212 184.924,265.712 188,266.5C 194.931,264.827 201.764,263.661 208.5,263C 209,262.5 209.5,262 210,261.5C 211.864,262.964 214.031,263.964 216.5,264.5C 213.716,265.392 211.216,265.392 209,264.5C 208.25,265.126 207.416,265.626 206.5,266C 207.833,266.667 208.833,267.667 209.5,269C 208.402,269.77 208.402,270.603 209.5,271.5C 204.62,274.107 199.62,276.44 194.5,278.5C 192.275,277.249 190.109,277.582 188,279.5C 186.991,278.342 185.658,277.675 184,277.5C 175.918,280.745 175.085,279.911 181.5,275C 181.167,274.667 180.833,274.333 180.5,274C 182.5,273.667 184.5,273.333 186.5,273C 179.451,272.073 172.284,270.573 165,268.5C 163.984,269.634 163.317,269.301 163,267.5C 162.667,267.833 162.333,268.167 162,268.5C 156.514,265.68 150.681,263.847 144.5,263C 141.246,261.973 138.246,260.473 135.5,258.5C 129.665,260.037 123.998,261.703 118.5,263.5C 108.237,265.906 97.9039,266.073 87.5,264C 90.6946,263.819 93.6946,263.319 96.5,262.5C 100.924,262.348 105.257,261.681 109.5,260.5C 117.007,259.077 124.34,257.077 131.5,254.5C 131.196,255.15 130.863,255.817 130.5,256.5C 132,256.833 133.5,257.167 135,257.5C 140.055,256.869 144.888,255.536 149.5,253.5 Z"/></g>
<g><path style="opacity:1" fill="#0f5d8a" d="M 67.5,259.5 C 71.2621,259.691 74.9288,260.358 78.5,261.5C 84.4406,262.413 90.4406,262.746 96.5,262.5C 93.6946,263.319 90.6946,263.819 87.5,264C 97.9039,266.073 108.237,265.906 118.5,263.5C 118.297,265.39 118.963,266.89 120.5,268C 128.73,270.329 137.063,273.163 145.5,276.5C 146.842,275.098 147.676,275.431 148,277.5C 149.667,277.5 151.333,277.5 153,277.5C 155.296,280.123 158.129,281.956 161.5,283C 160.271,283.781 158.938,284.281 157.5,284.5C 153.029,283.546 148.529,283.546 144,284.5C 142.167,284.333 140.333,284.167 138.5,284C 140.833,283.667 143.167,283.333 145.5,283C 144.584,282.626 143.75,282.126 143,281.5C 140.688,281.955 138.688,282.955 137,284.5C 135.915,283.707 134.748,283.04 133.5,282.5C 131.149,284.229 128.482,284.896 125.5,284.5C 103.884,281.193 84.5507,272.86 67.5,259.5 Z"/></g>
<g><path style="opacity:1" fill="#13658a" d="M 194.5,278.5 C 171.876,286.503 148.876,288.503 125.5,284.5C 128.482,284.896 131.149,284.229 133.5,282.5C 134.748,283.04 135.915,283.707 137,284.5C 138.688,282.955 140.688,281.955 143,281.5C 143.75,282.126 144.584,282.626 145.5,283C 143.167,283.333 140.833,283.667 138.5,284C 140.333,284.167 142.167,284.333 144,284.5C 148.529,283.546 153.029,283.546 157.5,284.5C 158.938,284.281 160.271,283.781 161.5,283C 158.129,281.956 155.296,280.123 153,277.5C 151.333,277.5 149.667,277.5 148,277.5C 147.676,275.431 146.842,275.098 145.5,276.5C 137.063,273.163 128.73,270.329 120.5,268C 118.963,266.89 118.297,265.39 118.5,263.5C 123.998,261.703 129.665,260.037 135.5,258.5C 138.246,260.473 141.246,261.973 144.5,263C 150.681,263.847 156.514,265.68 162,268.5C 162.333,268.167 162.667,267.833 163,267.5C 163.317,269.301 163.984,269.634 165,268.5C 172.284,270.573 179.451,272.073 186.5,273C 184.5,273.333 182.5,273.667 180.5,274C 180.833,274.333 181.167,274.667 181.5,275C 175.085,279.911 175.918,280.745 184,277.5C 185.658,277.675 186.991,278.342 188,279.5C 190.109,277.582 192.275,277.249 194.5,278.5 Z"/></g>
</svg>
